<svg xmlns="http://www.w3.org/2000/svg" xmlns:xlink="http://www.w3.org/1999/xlink" width="500"
  zoomAndPan="magnify" viewBox="0 0 375 374.999991" height="500" preserveAspectRatio="xMidYMid meet"
  version="1.0">
  <defs>
    <clipPath id="33a16dcd80">
      <path
        d="M 124.316406 106.996094 L 250.316406 106.996094 L 250.316406 210.496094 L 124.316406 210.496094 Z M 124.316406 106.996094 "
        clip-rule="nonzero" />
    </clipPath>
  </defs>
  <g clip-path="url(#33a16dcd80)">
    <path fill="#ffffff"
      d="M 235.339844 189.839844 L 209.078125 189.839844 L 209.078125 200.300781 L 235.339844 200.300781 L 235.339844 204.832031 L 237.789062 204.832031 L 237.789062 109.441406 L 243.15625 109.441406 L 243.15625 106.996094 L 174.113281 106.996094 L 174.113281 109.441406 L 235.34375 109.441406 L 235.34375 189.839844 Z M 211.527344 197.855469 L 211.527344 192.285156 L 235.339844 192.285156 L 235.339844 197.855469 Z M 181.929688 207.695312 L 181.929688 183.148438 L 222.269531 183.148438 L 222.269531 155.484375 L 181.929688 155.484375 L 181.929688 147.296875 L 222.269531 147.296875 L 222.269531 119.636719 L 181.929688 119.636719 L 181.929688 112.824219 L 179.480469 112.824219 L 179.480469 144.851562 L 136.871094 144.851562 C 135.257812 144.851562 133.949219 146.164062 133.949219 147.773438 L 133.949219 150.507812 C 133.949219 152.121094 135.257812 153.429688 136.871094 153.429688 L 139.914062 153.429688 L 139.914062 186.917969 L 142.359375 186.917969 L 142.359375 153.429688 L 179.480469 153.429688 L 179.480469 190.238281 L 173.058594 190.238281 L 173.058594 160.5 L 156.234375 160.5 L 156.234375 190.238281 L 134.207031 190.238281 L 134.207031 192.683594 L 179.476562 192.683594 L 179.476562 196.058594 L 131.035156 196.058594 L 131.035156 198.503906 L 179.480469 198.503906 L 179.480469 201.875 L 127.867188 201.875 L 127.867188 204.320312 L 179.480469 204.320312 L 179.480469 207.691406 L 124.382812 207.691406 L 124.382812 210.136719 L 250.628906 210.136719 L 250.628906 207.691406 L 181.929688 207.691406 Z M 219.824219 144.851562 L 211.527344 144.851562 L 211.527344 122.082031 L 219.824219 122.082031 Z M 181.929688 122.082031 L 209.078125 122.082031 L 209.078125 144.851562 L 181.929688 144.851562 Z M 136.871094 150.988281 C 136.609375 150.988281 136.394531 150.773438 136.394531 150.511719 L 136.394531 147.777344 C 136.394531 147.515625 136.609375 147.300781 136.871094 147.300781 L 179.480469 147.300781 L 179.480469 150.988281 Z M 219.824219 180.699219 L 211.527344 180.699219 L 211.527344 157.933594 L 219.824219 157.933594 Z M 209.078125 157.933594 L 209.078125 180.699219 L 181.929688 180.699219 L 181.929688 157.933594 Z M 158.679688 190.238281 L 158.679688 162.945312 L 170.613281 162.945312 L 170.613281 190.238281 Z M 158.679688 190.238281 "
      fill-opacity="1" fill-rule="nonzero" />
  </g>
</svg>