<svg xmlns="http://www.w3.org/2000/svg" xmlns:xlink="http://www.w3.org/1999/xlink" width="230"
    zoomAndPan="magnify" viewBox="0 0 172.5 149.249994" height="199"
    preserveAspectRatio="xMidYMid meet" version="1.0">
    <defs>
        <g />
        <clipPath id="b3435bc4b0">
            <path
                d="M 22.789062 0 L 148.15625 0 L 148.15625 102.984375 L 22.789062 102.984375 Z M 22.789062 0 "
                clip-rule="nonzero" />
        </clipPath>
    </defs>
    <g fill="#ffffff" fill-opacity="1">
        <g transform="translate(26.690585, 134.129382)">
            <g>
                <path
                    d="M 11.65625 0 L 7.78125 -7.28125 C 6.976562 -7.25 6.257812 -7.234375 5.625 -7.234375 L 4.890625 -7.234375 L 4.890625 0 L 2.046875 0 L 2.046875 -19.25 L 6.421875 -19.25 C 8.628906 -19.25 10.445312 -18.789062 11.875 -17.875 C 13.3125 -16.957031 14.03125 -15.46875 14.03125 -13.40625 C 14.03125 -12.113281 13.726562 -11 13.125 -10.0625 C 12.53125 -9.132812 11.640625 -8.414062 10.453125 -7.90625 L 15.03125 0 Z M 6.75 -9.609375 C 8.46875 -9.609375 9.644531 -9.976562 10.28125 -10.71875 C 10.914062 -11.46875 11.234375 -12.351562 11.234375 -13.375 C 11.234375 -15.664062 9.707031 -16.8125 6.65625 -16.8125 L 4.890625 -16.8125 L 4.890625 -9.609375 Z M 6.75 -9.609375 " />
            </g>
        </g>
    </g>
    <g fill="#ffffff" fill-opacity="1">
        <g transform="translate(47.537766, 134.129382)">
            <g>
                <path
                    d="M 10.890625 0.265625 C 9.148438 0.265625 7.539062 -0.140625 6.0625 -0.953125 C 4.582031 -1.765625 3.40625 -2.921875 2.53125 -4.421875 C 1.664062 -5.921875 1.234375 -7.664062 1.234375 -9.65625 C 1.234375 -11.664062 1.664062 -13.414062 2.53125 -14.90625 C 3.40625 -16.40625 4.582031 -17.554688 6.0625 -18.359375 C 7.539062 -19.160156 9.148438 -19.5625 10.890625 -19.5625 C 12.640625 -19.5625 14.25 -19.160156 15.71875 -18.359375 C 17.195312 -17.554688 18.375 -16.40625 19.25 -14.90625 C 20.125 -13.414062 20.5625 -11.664062 20.5625 -9.65625 C 20.5625 -7.664062 20.125 -5.921875 19.25 -4.421875 C 18.375 -2.921875 17.195312 -1.765625 15.71875 -0.953125 C 14.25 -0.140625 12.640625 0.265625 10.890625 0.265625 Z M 10.890625 -2.390625 C 12.097656 -2.390625 13.195312 -2.671875 14.1875 -3.234375 C 15.1875 -3.796875 15.976562 -4.625 16.5625 -5.71875 C 17.144531 -6.8125 17.4375 -8.117188 17.4375 -9.640625 C 17.4375 -11.171875 17.144531 -12.484375 16.5625 -13.578125 C 15.976562 -14.671875 15.191406 -15.492188 14.203125 -16.046875 C 13.222656 -16.609375 12.117188 -16.890625 10.890625 -16.890625 C 9.671875 -16.890625 8.5625 -16.609375 7.5625 -16.046875 C 6.570312 -15.492188 5.785156 -14.671875 5.203125 -13.578125 C 4.628906 -12.484375 4.34375 -11.171875 4.34375 -9.640625 C 4.34375 -8.117188 4.640625 -6.8125 5.234375 -5.71875 C 5.828125 -4.625 6.625 -3.796875 7.625 -3.234375 C 8.632812 -2.671875 9.722656 -2.390625 10.890625 -2.390625 Z M 10.890625 -2.390625 " />
            </g>
        </g>
    </g>
    <g fill="#ffffff" fill-opacity="1">
        <g transform="translate(74.198848, 134.129382)">
            <g>
                <path
                    d="M 10.890625 0.265625 C 9.148438 0.265625 7.539062 -0.140625 6.0625 -0.953125 C 4.582031 -1.765625 3.40625 -2.921875 2.53125 -4.421875 C 1.664062 -5.921875 1.234375 -7.664062 1.234375 -9.65625 C 1.234375 -11.664062 1.664062 -13.414062 2.53125 -14.90625 C 3.40625 -16.40625 4.582031 -17.554688 6.0625 -18.359375 C 7.539062 -19.160156 9.148438 -19.5625 10.890625 -19.5625 C 12.640625 -19.5625 14.25 -19.160156 15.71875 -18.359375 C 17.195312 -17.554688 18.375 -16.40625 19.25 -14.90625 C 20.125 -13.414062 20.5625 -11.664062 20.5625 -9.65625 C 20.5625 -7.664062 20.125 -5.921875 19.25 -4.421875 C 18.375 -2.921875 17.195312 -1.765625 15.71875 -0.953125 C 14.25 -0.140625 12.640625 0.265625 10.890625 0.265625 Z M 10.890625 -2.390625 C 12.097656 -2.390625 13.195312 -2.671875 14.1875 -3.234375 C 15.1875 -3.796875 15.976562 -4.625 16.5625 -5.71875 C 17.144531 -6.8125 17.4375 -8.117188 17.4375 -9.640625 C 17.4375 -11.171875 17.144531 -12.484375 16.5625 -13.578125 C 15.976562 -14.671875 15.191406 -15.492188 14.203125 -16.046875 C 13.222656 -16.609375 12.117188 -16.890625 10.890625 -16.890625 C 9.671875 -16.890625 8.5625 -16.609375 7.5625 -16.046875 C 6.570312 -15.492188 5.785156 -14.671875 5.203125 -13.578125 C 4.628906 -12.484375 4.34375 -11.171875 4.34375 -9.640625 C 4.34375 -8.117188 4.640625 -6.8125 5.234375 -5.71875 C 5.828125 -4.625 6.625 -3.796875 7.625 -3.234375 C 8.632812 -2.671875 9.722656 -2.390625 10.890625 -2.390625 Z M 10.890625 -2.390625 " />
            </g>
        </g>
    </g>
    <g fill="#ffffff" fill-opacity="1">
        <g transform="translate(100.859925, 134.129382)">
            <g>
                <path
                    d="M 6.984375 -8.984375 L 5.78125 -11.703125 L 5.234375 -8.984375 L 3.453125 0 L 0.546875 0 L 4.53125 -19.25 L 4.84375 -19.25 L 10.140625 -8.84375 L 11.703125 -5.375 L 13.28125 -8.84375 L 18.46875 -19.25 L 18.75 -19.25 L 22.890625 0 L 20 0 L 18.0625 -8.984375 L 17.5 -11.703125 L 16.453125 -8.984375 L 11.78125 0 L 11.625 0 Z M 6.984375 -8.984375 " />
            </g>
        </g>
    </g>
    <g fill="#ffffff" fill-opacity="1">
        <g transform="translate(129.170896, 134.129382)">
            <g>
                <path
                    d="M 6.265625 -8.984375 L -0.421875 -19.25 L 3.09375 -19.25 L 7.71875 -11.65625 L 12.359375 -19.25 L 15.84375 -19.25 L 9.1875 -8.9375 L 9.1875 0 L 6.265625 0 Z M 6.265625 -8.984375 " />
            </g>
        </g>
    </g>
    <g clip-path="url(#b3435bc4b0)">
        <path fill="#ffffff"
            d="M 133.257812 82.429688 L 107.128906 82.429688 L 107.128906 92.839844 L 133.257812 92.839844 L 133.257812 97.347656 L 135.691406 97.347656 L 135.691406 2.433594 L 141.035156 2.433594 L 141.035156 0 L 72.335938 0 L 72.335938 2.433594 L 133.261719 2.433594 L 133.261719 82.429688 Z M 109.5625 90.402344 L 109.5625 84.863281 L 133.257812 84.863281 L 133.257812 90.402344 Z M 80.113281 100.195312 L 80.113281 75.769531 L 120.25 75.769531 L 120.25 48.246094 L 80.113281 48.246094 L 80.113281 40.101562 L 120.25 40.101562 L 120.25 12.578125 L 80.113281 12.578125 L 80.113281 5.796875 L 77.675781 5.796875 L 77.675781 37.667969 L 35.28125 37.667969 C 33.675781 37.667969 32.371094 38.972656 32.371094 40.574219 L 32.371094 43.292969 C 32.371094 44.898438 33.675781 46.203125 35.28125 46.203125 L 38.304688 46.203125 L 38.304688 79.519531 L 40.742188 79.519531 L 40.742188 46.203125 L 77.675781 46.203125 L 77.675781 82.824219 L 71.289062 82.824219 L 71.289062 53.234375 L 54.546875 53.234375 L 54.546875 82.824219 L 32.628906 82.824219 L 32.628906 85.261719 L 77.675781 85.261719 L 77.675781 88.617188 L 29.476562 88.617188 L 29.476562 91.050781 L 77.675781 91.050781 L 77.675781 94.402344 L 26.320312 94.402344 L 26.320312 96.839844 L 77.675781 96.839844 L 77.675781 100.191406 L 22.851562 100.191406 L 22.851562 102.628906 L 148.472656 102.628906 L 148.472656 100.191406 L 80.113281 100.191406 Z M 117.816406 37.667969 L 109.5625 37.667969 L 109.5625 15.011719 L 117.816406 15.011719 Z M 80.113281 15.011719 L 107.128906 15.011719 L 107.128906 37.667969 L 80.113281 37.667969 Z M 35.28125 43.769531 C 35.019531 43.769531 34.808594 43.558594 34.808594 43.296875 L 34.808594 40.578125 C 34.808594 40.316406 35.019531 40.105469 35.28125 40.105469 L 77.675781 40.105469 L 77.675781 43.773438 L 35.28125 43.773438 Z M 117.816406 73.335938 L 109.5625 73.335938 L 109.5625 50.683594 L 117.816406 50.683594 Z M 107.128906 50.683594 L 107.128906 73.335938 L 80.113281 73.335938 L 80.113281 50.683594 Z M 56.980469 82.824219 L 56.980469 55.671875 L 68.851562 55.671875 L 68.851562 82.824219 Z M 56.980469 82.824219 "
            fill-opacity="1" fill-rule="nonzero" />
    </g>
</svg>